# xmcd CD database file
# Copyright (C) 1993-1996 Ti Kan
#
# Track frame offsets:
# 150
# 21593
# 31670
# 52685
# 62640
# 71730
# 81723
# 92598
# 108263
# 123638
# 135488
# 152143
# 167150
# 191583
# 206933
# 224238
# 236120
# 251865
# 265765
# 282390
# 298898
# 309143
# 323610
# 342858
#
# Disc length: 4615 seconds
#
# Revision: 0
# Processed by: cddbd v1.4b41PL1 Copyright (c) Steve Scherf et al.
# Submitted via: inCDius 1.1b3
#
DISCID=75120518
DTITLE=Freakwater - Dancing Under Water/Freakwater
DYEAR=1900
DGENRE=
TTITLE0=A Song You Could Cry For
TTITLE1=Great Potential
TTITLE2=Rank Strangers
TTITLE3=Blood And Fire
TTITLE4=Selfishness In Man
TTITLE5=Fill My Thermos
TTITLE6=You're Still On My Mind
TTITLE7=Your Goddamn Mouth
TTITLE8=No, That Could Never Be
TTITLE9=Little Girl And The Dreadful Snake
TTITLE10=Scratches On The Door
TTITLE11=Wild And Blue
TTITLE12=Annabelle Lee
TTITLE13=Dark As A Dungeon
TTITLE14=Miner Song
TTITLE15=Childish Love
TTITLE16=Lonesome Sound
TTITLE17=Family Tradition
TTITLE18=The Great Titanic
TTITLE19=Blue Eyes
TTITLE20=The Ballad Of Freakwater
TTITLE21=A Mile Away
TTITLE22=Albert C. Sampson
TTITLE23=untitled instrumental
EXTD=1989/1991\n
EXTT0=\n
EXTT1=
EXTT2=
EXTT3=
EXTT4=
EXTT5=
EXTT6=
EXTT7=
EXTT8=
EXTT9=
EXTT10=
EXTT11=
EXTT12=
EXTT13=
EXTT14=
EXTT15=
EXTT16=
EXTT17=
EXTT18=
EXTT19=
EXTT20=
EXTT21=
EXTT22=
EXTT23=
PLAYORDER=
